<?xml version="1.0" encoding="UTF-8"?>
<svg fill="none" viewBox="0 0 70 70" xmlns="http://www.w3.org/2000/svg">
<path d="m26.031 34.278c2.5157 1.8375 5.6219 2.9094 8.9688 2.9094 8.1856 0 15.312-7.0853 15.312-15.312 0-8.4437-6.8688-15.312-15.312-15.312-8.4438 0-15.312 6.8688-15.312 15.312 0 5.0969 2.4937 9.625 6.3437 12.403z" fill="url(#b)"/>
<path d="m48.475 36.203c-3.5219 3.325-8.2687 5.3594-13.475 5.3594s-9.9531-2.0344-13.475-5.3594c-8.9031 4.8125-14.962 14.241-14.962 25.047 0 1.2031 0.98437 2.1875 2.1875 2.1875h52.5c1.2031 0 2.1875-0.9844 2.1875-2.1875 0-10.806-6.0594-20.234-14.962-25.047z" fill="url(#a)"/>
<defs>
<linearGradient id="b" x1="35" x2="35" y1="6.5625" y2="37.188" gradientUnits="userSpaceOnUse">
<stop stop-color="#FF5B57" offset="0"/>
<stop stop-color="#FF56A7" offset="1"/>
</linearGradient>
<linearGradient id="a" x1="35" x2="35" y1="36.203" y2="63.438" gradientUnits="userSpaceOnUse">
<stop stop-color="#FF5B57" offset="0"/>
<stop stop-color="#FF56A7" offset="1"/>
</linearGradient>
</defs>
</svg>
