<?xml version="1.0" encoding="UTF-8"?>
<svg fill="none" viewBox="0 0 56 75" xmlns="http://www.w3.org/2000/svg">
<path d="m27.533 0c-15.181 0-27.533 12.352-27.533 27.534 0 3.9602 0.81055 7.7412 2.4079 11.239 6.8839 15.064 20.082 30.968 23.964 35.483 0.2908 0.3376 0.7149 0.532 1.1611 0.532s0.8702-0.1944 1.1611-0.532c3.8805-4.5142 17.079-20.418 23.965-35.483 1.5982-3.4979 2.4079-7.2789 2.4079-11.239-0.0015-15.182-12.353-27.534-27.535-27.534zm0 41.836c-7.8858 0-14.302-6.4163-14.302-14.302 0-7.8866 6.4163-14.303 14.302-14.303 7.8859 0 14.302 6.4163 14.302 14.303 7e-4 7.8858-6.4156 14.302-14.302 14.302z" fill="#B4B4B4"/>
</svg>
