<?xml version="1.0" encoding="UTF-8"?>
<svg fill="none" viewBox="0 0 45 61" xmlns="http://www.w3.org/2000/svg">
<path d="m22.236 0c-12.261 0-22.236 9.9758-22.236 22.238 0 3.1983 0.65462 6.252 1.9447 9.077 5.5597 12.166 16.219 25.01 19.354 28.657 0.2349 0.2726 0.5774 0.4296 0.9378 0.4296s0.7028-0.157 0.9377-0.4296c3.1341-3.6459 13.794-16.49 19.355-28.657 1.2907-2.825 1.9447-5.8787 1.9447-9.077-0.0013-12.262-9.977-22.238-22.238-22.238zm0 33.788c-6.3689 0-11.551-5.182-11.551-11.551 0-6.3695 5.182-11.552 11.551-11.552 6.3688 0 11.551 5.182 11.551 11.552 6e-4 6.3688-5.1814 11.551-11.551 11.551z" fill="url(#a)"/>
<defs>
<linearGradient id="a" x1="22.237" x2="22.237" y2="60.401" gradientUnits="userSpaceOnUse">
<stop stop-color="#FF5B57" offset="0"/>
<stop stop-color="#FF56A7" offset="1"/>
</linearGradient>
</defs>
</svg>
