<svg enable-background="new 0 0 512 512" viewBox="0 0 512 512" xmlns="http://www.w3.org/2000/svg"><circle cx="188.26" cy="125.16" fill="#2d0af0" r="45.16"/><path d="m209.68 277.57 46.32-80.24h-108.98c-41.89 0-68.07 45.35-47.13 81.63l41.23 71.42c20.95 36.28 73.31 36.28 94.25 0l20.63-35.71h-24.91c-19.03 0-30.93-20.61-21.41-37.1z" fill="#2d0af0"/><g fill="#1e00e1"><circle cx="323.74" cy="386.84" r="45.16"/><path d="m412.1 233.04-41.23-71.42c-20.95-36.28-73.31-36.28-94.25 0l-20.62 35.71h24.91c19.04 0 30.94 20.61 21.42 37.1l-46.33 80.24h108.98c41.89 0 68.07-45.35 47.12-81.63z"/></g></svg>